<svg width="2421" height="912" viewBox="0 0 2421 912" fill="none" xmlns="http://www.w3.org/2000/svg">
<rect width="2421" height="912" rx="456" fill="black"/>
<path d="M1981.76 562.559C2048.26 562.559 2085.29 540.974 2097.74 494.87H2098.58C2098.58 516.024 2097.74 543.446 2096.9 558.402H2150.07V353.155H2096.9V437.082C2096.9 489.051 2052 518.972 1999.23 518.972C1940.61 518.972 1921.48 495.702 1921.48 457.882V353.155H1868.34V469.104C1868.34 518.559 1901.97 562.559 1981.76 562.559Z" fill="white"/>
<path d="M1622.72 649C1673.41 649 1696.68 626.588 1729.92 562.978L1838.78 353.155H1784.35L1702.08 511.453H1701.25L1608.59 353.155H1546.68L1667.59 558.402H1677.98C1656.37 599.173 1642.66 607.493 1616.07 607.493C1601.52 607.493 1588.23 604.581 1581.58 602.501V643.181C1589.47 645.68 1605.68 649 1622.72 649Z" fill="white"/>
<path d="M1346.74 562.559C1413.26 562.559 1450.26 540.974 1462.73 494.87H1463.56C1463.56 516.024 1462.73 543.446 1461.9 558.402H1515.04V353.155H1461.9V437.082C1461.9 489.051 1417 518.972 1364.21 518.972C1305.59 518.972 1286.47 495.702 1286.47 457.882V353.155H1233.33V469.104C1233.33 518.559 1266.95 562.559 1346.74 562.559Z" fill="white"/>
<path d="M1064.99 562.559C1171.79 562.559 1195.46 526.453 1195.46 494.857C1195.46 475.317 1186.74 458.688 1167.64 449.957C1149.78 442.474 1122.77 439.98 1086.19 438.316C1053.76 436.655 1027.15 436.655 1012.6 432.913C999.299 430.001 995.142 424.182 995.142 415.867C995.142 396.326 1018.01 386.765 1066.65 386.765C1122.77 386.765 1132.75 402.147 1133.17 422.518H1183.42C1183.42 383.861 1162.66 349 1064.99 349C986.424 349 942 376.805 942 418.361C942 435.407 948.643 451.205 964.004 459.52C979.781 468.25 1010.94 473.24 1053.35 474.485C1079.95 475.317 1111.13 476.149 1125.68 479.059C1138.99 481.971 1142.31 488.206 1142.31 496.521C1142.31 512.735 1128.18 524.791 1064.99 524.791C1000.96 524.791 992.651 507.329 992.238 490.286H942C942 521.05 958.606 562.559 1064.99 562.559Z" fill="white"/>
<path d="M614.634 671.208C627.342 648.401 634.583 622.138 634.583 594.194C634.583 506.657 563.529 435.612 475.992 435.612C410.969 435.612 358.192 382.835 358.192 317.806C358.192 252.776 410.969 200 475.992 200C617.313 200 732 314.688 732 456C732 546.235 685.227 625.613 614.634 671.208ZM475.992 252.761C464.032 252.761 454.316 262.476 454.316 274.443C454.316 286.408 464.032 296.125 475.992 296.125C487.969 296.125 497.673 286.408 497.673 274.443C497.673 262.476 487.969 252.761 475.992 252.761ZM519.355 296.125C507.391 296.125 497.673 305.839 497.673 317.806C497.673 329.772 507.391 339.488 519.355 339.488C531.332 339.488 541.036 329.772 541.036 317.806C541.036 305.839 531.332 296.125 519.355 296.125ZM432.635 296.125C420.669 296.125 410.955 305.839 410.955 317.806C410.955 329.772 420.669 339.488 432.635 339.488C444.601 339.488 454.316 329.772 454.316 317.806C454.316 305.839 444.601 296.125 432.635 296.125ZM475.992 339.488C464.032 339.488 454.316 349.203 454.316 361.168C454.316 373.135 464.032 382.85 475.992 382.85C487.969 382.85 497.673 373.135 497.673 361.168C497.673 349.203 487.969 339.488 475.992 339.488Z" fill="#FF3554"/>
<path d="M337.361 240.792C324.657 263.599 317.417 289.862 317.417 317.806C317.417 405.343 388.461 476.388 475.992 476.388C541.022 476.388 593.805 529.165 593.805 594.194C593.805 659.222 541.022 712 475.992 712C334.687 712 220 597.312 220 456C220 365.766 266.764 286.385 337.361 240.792ZM475.992 529.149C464.032 529.149 454.316 538.865 454.316 550.831C454.316 562.798 464.032 572.512 475.992 572.512C487.969 572.512 497.673 562.798 497.673 550.831C497.673 538.865 487.969 529.149 475.992 529.149ZM519.355 572.512C507.391 572.512 497.673 582.227 497.673 594.194C497.673 606.161 507.391 615.876 519.355 615.876C531.332 615.876 541.036 606.161 541.036 594.194C541.036 582.227 531.332 572.512 519.355 572.512ZM475.992 615.876C464.032 615.876 454.316 625.59 454.316 637.557C454.316 649.523 464.032 659.239 475.992 659.239C487.969 659.239 497.673 649.523 497.673 637.557C497.673 625.59 487.969 615.876 475.992 615.876ZM432.634 572.512C420.669 572.512 410.954 582.227 410.954 594.194C410.954 606.161 420.669 615.876 432.634 615.876C444.601 615.876 454.316 606.161 454.316 594.194C454.316 582.227 444.601 572.512 432.634 572.512Z" fill="#3A99FF"/>
</svg>
