<svg width="512" height="512" viewBox="0 0 512 512" fill="none" xmlns="http://www.w3.org/2000/svg">
<path d="M394.633 471.208C407.342 448.401 414.583 422.138 414.583 394.194C414.583 306.657 343.529 235.612 255.992 235.612C190.969 235.612 138.192 182.835 138.192 117.806C138.192 52.7762 190.969 0 255.992 0C397.313 0 512 114.688 512 256C512 346.235 465.227 425.613 394.633 471.208ZM255.992 52.7613C244.032 52.7613 234.316 62.4761 234.316 74.4429C234.316 86.4084 244.032 96.1245 255.992 96.1245C267.969 96.1245 277.673 86.4084 277.673 74.4429C277.673 62.4761 267.969 52.7613 255.992 52.7613ZM299.355 96.1245C287.391 96.1245 277.673 105.839 277.673 117.806C277.673 129.772 287.391 139.488 299.355 139.488C311.332 139.488 321.036 129.772 321.036 117.806C321.036 105.839 311.332 96.1245 299.355 96.1245ZM212.634 96.1245C200.669 96.1245 190.954 105.839 190.954 117.806C190.954 129.772 200.669 139.488 212.634 139.488C224.601 139.488 234.316 129.772 234.316 117.806C234.316 105.839 224.601 96.1245 212.634 96.1245ZM255.992 139.488C244.032 139.488 234.316 149.203 234.316 161.168C234.316 173.135 244.032 182.85 255.992 182.85C267.969 182.85 277.673 173.135 277.673 161.168C277.673 149.203 267.969 139.488 255.992 139.488Z" fill="#FF3554"/>
<path d="M117.361 40.7917C104.657 63.5994 97.4173 89.8623 97.4173 117.806C97.4173 205.343 168.461 276.388 255.992 276.388C321.022 276.388 373.805 329.165 373.805 394.194C373.805 459.222 321.022 512 255.992 512C114.687 512 0 397.312 0 256C0 165.766 46.7638 86.3854 117.361 40.7917ZM255.992 329.149C244.032 329.149 234.316 338.865 234.316 350.831C234.316 362.798 244.032 372.512 255.992 372.512C267.969 372.512 277.673 362.798 277.673 350.831C277.673 338.865 267.969 329.149 255.992 329.149ZM299.355 372.512C287.391 372.512 277.673 382.227 277.673 394.194C277.673 406.161 287.391 415.876 299.355 415.876C311.332 415.876 321.036 406.161 321.036 394.194C321.036 382.227 311.332 372.512 299.355 372.512ZM255.992 415.876C244.032 415.876 234.316 425.59 234.316 437.557C234.316 449.523 244.032 459.239 255.992 459.239C267.969 459.239 277.673 449.523 277.673 437.557C277.673 425.59 267.969 415.876 255.992 415.876ZM212.635 372.512C200.669 372.512 190.955 382.227 190.955 394.194C190.955 406.161 200.669 415.876 212.635 415.876C224.601 415.876 234.316 406.161 234.316 394.194C234.316 382.227 224.601 372.512 212.635 372.512Z" fill="#3A99FF"/>
</svg>
